 http://www.thedesiadda.com/forums/



     *********** ****    ****      ***      ******** *********** ****    *** **********
          *+*     +*+*+* *+*+*+   *+* *+*   *+*    *+*    *+*     *+*+*   *+* *+*        
          +*+     +*+ +*+*+ +*+  +*+   +*+  +*+           +*+     *+*+*+  +*+ +*+        
          +$+     +$+  +*+  +$+ +$++*++$++* *$*           +$+     +$+ +*+ +$+ +$++*++$  
          +$+     +$+       +$+ +$+     +$+ +$+   +$+$    +$+     +$+  +$+$+$ +$+        
          $+$     $+$       $+$ $+$     $+$ $+$    $+$    $+$     $+$   $+$+$ $+$        
      $$$$$$$$$$$ $$$       $$$ $$$     $$$  $$$$$$$$ $$$$$$$$$$$ $$$    $$$$ $$$$$$$$$$    
                                               



                          Another Fine Release Brought to you from - IMAGiNE                  
                                               

********************************************************************************************************************                                
                             The Adjustment Bureau 2011 TS XViD - IMAGiNE
********************************************************************************************************************

Ripper ...........:IMAGiNE                                         IMDB Rating.......:7.4/10                            
Video Codec.......:XVID                                            Release Date......:05/03/11
Audio Codec.......:MP3                                             Theatre Date......:04/03/11
Audio Bitrate.....:128                                             Runtime...........:1h 38mn
Subtitles.........:yes                                             Language..........:ENGLISH
Resolution........:720 x 304                                       IMDb URL..........:http://www.imdb.com/title/tt1385826/
DETAILS:

Video
ID                               : 0
Format                           : MPEG-4 Visual
Format profile                   : Advanced Simple@L5
Format settings, BVOP            : Yes
Format settings, QPel            : No
Format settings, GMC             : No warppoints
Format settings, Matrix          : Default (MPEG)
Muxing mode                      : Packed bitstream
Codec ID                         : XVID
Codec ID/Hint                    : XviD
Duration                         : 1h 38mn
Bit rate                         : 1 845 Kbps
Width                            : 720 pixels
Height                           : 304 pixels
Display aspect ratio             : 2.35:1
Frame rate                       : 25.000 fps
Color space                      : YUV
Chroma subsampling               : 4:2:0
Bit depth                        : 8 bits
Scan type                        : Progressive
Bits/(Pixel*Frame)               : 0.337
Stream size                      : 1.27 GiB (93%)
Writing library                  : XviD 1.2.1 (UTC 2008-12-04)

Audio
ID                               : 1
Format                           : MPEG Audio
Format version                   : Version 1
Format profile                   : Layer 3
Codec ID                         : 55
Codec ID/Hint                    : MP3
Duration                         : 1h 38mn
Bit rate mode                    : Constant
Bit rate                         : 128 Kbps
Channel(s)                       : 2 channels
Sampling rate                    : 44.1 KHz
Stream size                      : 90.4 MiB (6%)
Alignment                        : Split accross interleaves
Interleave, duration             : 40 ms (1.00 video frame)
Interleave, preload duration     : 500 ms









SOURCES:

VIDEO: relizlab... Thanks
AUDIO: Thanks matey... Thanks

NOTES:

IMAGiNE bringing you another release.......... The Adjustment Bureau 2011

Here we are with nice encode for you all.work done made a small script
to brighten it up and alter the contrast....also changed the rgb colours
and added some sharpeness.With the audio it was a pain to sync but we got
there now it was just a case of muxing the audio back to our encode...
more work done to it.....
We had to cut the film up into 15 parts for where the camera movement was really bad.
Then needed to use the perspective filter to be able to remove all the borders at different angles without losing any of the video (almost any anyway ).
Then resize them all so they had the same res so it was possible to append all the files together.
Now due to different amounts being removed the AR in parts might be a little off but at least you have the whole video,instead of just cropping the hell out of it.
FYI great line overall it come out nice for a TS plus subs for non english parts ..


Enjoy

SCREENS:
 
http://www.grinshare.com/img/2BNK3X.png
 
http://www.grinshare.com/img/UX3XVZ.png
 
http://www.grinshare.com/img/KEOOCL.png

GREETS:

FLAWL3SS,ViSiON,FUSiON,Rx,SecretMyth,BirdFlu,ELEKTRI4KA,SERENiTY and Autotron
And to all the other p2p grps past and present


Looking for these,syncers,cammers,silver supplier,Audio.....Have anything to offer????......
Contact us imaginegroup@hushmail.com